<svg width="47" height="47" viewBox="0 0 47 47" fill="none" xmlns="http://www.w3.org/2000/svg">
<path d="M23.5 0C10.5185 0 0 10.5185 0 23.5C0 36.4815 10.5185 47 23.5 47C36.4815 47 47 36.4815 47 23.5C47 10.5185 36.4815 0 23.5 0ZM14.5858 33.544C14.2808 34.0637 13.7385 34.3462 13.1736 34.3462C12.8911 34.3462 12.6087 34.2784 12.3488 34.1202C11.5692 33.6683 11.3094 32.674 11.7613 31.8945L13.3656 29.2281C13.5351 28.9457 13.8288 28.7762 14.1565 28.7762H14.3937C15.5575 28.7762 16.3709 29.4767 16.6082 30.1546L14.5858 33.544ZM28.1661 28.3017L17.6589 28.313H10.6767C9.75024 28.313 9.00457 27.5447 9.04976 26.6183C9.08365 25.737 9.85192 25.0704 10.7332 25.0704H15.7947L21.794 14.857L19.8507 11.5466C19.4101 10.7897 19.6022 9.79543 20.3478 9.32091C21.1387 8.8125 22.1781 9.07236 22.6413 9.86322L23.6808 11.637H23.6921L24.7315 9.86322C25.1947 9.07236 26.2454 8.8125 27.025 9.32091C27.7707 9.79543 27.9627 10.7897 27.5221 11.5466L25.5788 14.857L23.6921 18.0769L19.5909 25.0704V25.0817H25.6353C26.3923 25.0817 27.3413 25.4885 27.7255 26.1437L27.7594 26.2115C28.0983 26.7877 28.2904 27.1832 28.2904 27.7594C28.2791 28.0757 28.1661 28.3017 28.1661 28.3017ZM36.3233 28.313H33.4762V28.3243L35.555 31.8606C36.007 32.6288 35.7923 33.6457 35.0127 34.1202C34.7529 34.2784 34.4591 34.3575 34.1654 34.3575C33.6005 34.3575 33.0582 34.0637 32.7531 33.5553L29.68 28.3243L27.7707 25.0704L25.3077 20.8563C24.5846 19.6248 24.5507 18.0882 25.2399 16.868C25.7257 16.0094 26.0986 15.7834 26.0986 15.7834L31.5781 25.0591H36.2894C37.1707 25.0591 37.9276 25.737 37.9728 26.607C38.0067 27.5447 37.2611 28.313 36.3233 28.313Z" fill="#D9A4FC"/>
</svg>
