<svg width="61" height="61" viewBox="0 0 61 61" fill="none" xmlns="http://www.w3.org/2000/svg">
<path d="M35.4897 10.5909C37.473 12.7393 39.3841 15.9835 41.0139 19.9848C41.6414 21.5348 43.1414 22.4648 44.7208 22.4576C45.2112 22.4504 45.7088 22.3567 46.1847 22.162C48.2112 21.3329 49.1848 19.0187 48.3627 16.9929C46.3506 12.0544 43.978 8.08918 41.3168 5.20539C37.3143 0.886931 33.4705 -0.0142498 30.9463 0.0001691C30.9319 0.0001691 30.9175 0.0001691 30.9031 0.0001691C28.0328 0.0217975 25.3572 1.0167 22.963 2.96325C21.3403 4.27538 19.8331 5.99843 18.1311 8.50011C17.4243 9.20664 16.7464 9.61037 15.6286 10.0934C15.0949 10.3241 14.6262 10.4971 14.0853 10.663C14.0565 10.6702 13.1261 10.9513 12.8809 11.0306C12.7006 11.0955 12.5348 11.1604 12.3761 11.2253C11.7559 11.4992 11.4819 12.076 11.6982 12.6095C11.9001 13.1142 12.4627 13.4025 13.0757 13.2872C13.3353 13.2367 13.5733 13.1791 13.8185 13.0997C14.0348 13.0349 14.2367 12.9556 14.5036 12.8546C14.5901 12.8186 14.8858 12.7032 14.8714 12.7104C15.0228 12.6528 15.1382 12.6023 15.2608 12.559C15.5637 12.4437 15.845 12.35 16.1479 12.2635C16.4796 12.1697 16.6022 12.1986 16.6022 12.1914C16.6166 12.2274 16.5229 12.4076 16.2632 12.6023C15.7584 12.9844 14.381 14.0009 14.1141 14.1956C13.8834 14.3686 13.667 14.5344 13.4579 14.7075C13.1478 14.9598 12.8305 15.2265 12.4771 15.5293C11.2871 16.5747 12.6502 18.2761 13.9771 17.3317C15.4483 16.2863 16.1118 15.7817 17.6263 14.52C17.7777 14.3974 17.9219 14.3109 18.0229 14.2533C17.9652 14.383 17.8715 14.5416 17.7417 14.7363C16.6671 16.2719 16.1334 17.0361 15.5926 17.8003C15.232 18.3194 14.9579 18.7015 14.1069 19.9127C13.0324 21.4339 14.9363 22.7748 16.018 21.2608C16.6383 20.3885 17.1142 19.7108 17.6191 18.9899C17.9869 18.4636 19.4869 16.3152 19.6528 16.07C19.6672 16.0484 19.6816 16.0268 19.696 16.0052C19.6888 16.0268 19.6816 16.0412 19.6744 16.0628C19.3643 16.8775 19.1624 17.447 18.9965 17.9661C18.946 18.1247 18.8955 18.2833 18.845 18.442C18.7513 18.752 18.6648 19.0692 18.5422 19.5017C18.47 19.7613 18.1816 20.8571 18.1744 20.886C17.7633 22.4144 19.9412 23.1353 20.4605 21.6213C20.6191 21.1455 20.7489 20.7201 20.8932 20.2299C20.8932 20.2371 21.1312 19.3648 21.2033 19.1413C21.4413 18.341 21.6937 17.7066 22.1552 16.8415C22.3644 16.4449 22.7394 16.1061 23.0423 16.0052C23.2731 15.9331 23.374 15.9907 23.4317 16.344L23.6192 17.4326C23.7707 18.305 24.3981 19.0692 25.1193 19.3864C25.9702 19.7613 26.7058 19.3287 26.5255 18.3266C26.5039 18.1968 26.2731 16.9352 26.2154 16.618C26.201 16.5459 26.201 16.5459 26.1938 16.4738C26.1433 16.1854 26.1001 15.9186 26.0568 15.6231C25.689 13.1142 25.6962 11.8813 26.2082 10.9081C27.9246 8.81733 29.3598 7.94499 30.9536 7.93778C30.9608 7.93778 30.9608 7.93778 30.968 7.93778C32.6627 7.92336 34.3575 9.37246 35.4897 10.5909Z" fill="#4A4343"/>
<path d="M48.1241 49.1182C45.37 50.1098 41.6383 50.5976 37.3187 50.5409C35.6457 50.5157 34.204 51.5301 33.596 52.9897C33.4056 53.4427 33.3015 53.9323 33.2981 54.4514C33.2695 56.6429 35.0176 58.4422 37.2099 58.4707C42.5462 58.5412 47.1226 57.9075 50.8093 56.5759C56.3537 54.5785 58.6749 51.3853 59.6491 49.0628C59.6564 49.0485 59.6565 49.0341 59.6637 49.0269C60.7626 46.3736 60.8892 43.5267 60.0285 40.5652C59.45 38.5572 58.4464 36.5032 56.8113 33.9548C56.4351 33.0296 56.332 32.2431 56.3254 31.0318C56.3219 30.455 56.3468 29.9505 56.4009 29.3885C56.4011 29.3597 56.5083 28.3943 56.5316 28.1349C56.5473 27.9403 56.5484 27.7673 56.5495 27.5943C56.5395 26.9093 56.117 26.4451 55.5329 26.4342C54.9849 26.4234 54.5063 26.8241 54.3725 27.436C54.3204 27.688 54.2827 27.9401 54.2595 28.1923C54.2364 28.4156 54.2278 28.6319 54.2187 28.9202C54.2182 29.0067 54.2088 29.3311 54.2089 29.3167C54.2079 29.4753 54.1999 29.605 54.1919 29.7275C54.1826 30.0519 54.159 30.3473 54.1137 30.6643C54.0755 31.0029 53.9954 31.1105 54.0026 31.1105C53.9666 31.1103 53.8378 30.9509 53.7605 30.6331C53.6058 30.0193 53.2055 28.3585 53.1282 28.0336C53.0579 27.752 52.9875 27.492 52.9099 27.2247C52.797 26.8419 52.6769 26.4446 52.5283 26.0038C52.0332 24.501 49.9307 25.0931 50.281 26.6814C50.6735 28.4431 50.8775 29.2519 51.4495 31.1373C51.5059 31.3251 51.5265 31.4911 51.5402 31.6065C51.4471 31.505 51.3326 31.3601 51.2113 31.1574C50.212 29.5648 49.7194 28.783 49.2269 27.9868C48.8914 27.4511 48.6416 27.053 47.8636 25.7935C46.8785 24.2154 44.9018 25.4427 45.8796 27.0279C46.4362 27.9327 46.8788 28.6421 47.35 29.3878C47.6926 29.9307 49.0846 32.153 49.2417 32.3992C49.256 32.4209 49.2703 32.4426 49.2845 32.4643C49.2702 32.4498 49.2559 32.4353 49.2415 32.428C48.6108 31.8255 48.1662 31.4189 47.7575 31.063C47.6283 30.954 47.5064 30.8451 47.3773 30.7361C47.1262 30.5326 46.868 30.3219 46.5236 30.0457C46.3155 29.8785 45.4185 29.1806 45.3898 29.166C44.1412 28.1919 42.6228 29.9196 43.8275 30.98C44.2004 31.314 44.5447 31.5974 44.9465 31.9172C44.9394 31.91 45.6497 32.4769 45.829 32.6223C46.4747 33.1527 46.9547 33.6389 47.5773 34.3927C47.8563 34.7405 48.0335 35.2175 48.0026 35.5345C47.9795 35.7723 47.8853 35.8438 47.5396 35.7623L46.4667 35.5102C45.6025 35.31 44.656 35.585 44.0828 36.1293C43.4079 36.7666 43.5179 37.6108 44.5117 37.8335C44.6413 37.8632 45.8944 38.1452 46.2112 38.2122C46.2833 38.2271 46.2833 38.2271 46.3553 38.2419C46.6361 38.3086 46.9025 38.3752 47.1905 38.4492C49.6456 39.0923 50.7748 39.5754 51.476 40.4307C52.7299 42.8251 52.9716 44.4849 52.3635 45.9589C52.3634 45.9662 52.3562 45.9661 52.3562 45.9733C51.6896 47.5623 49.6855 48.5587 48.1241 49.1182Z" fill="#4A4343"/>
<path d="M9.02521 40.877C9.78012 38.0515 11.5099 34.7044 14.0262 31.1959C15.0004 29.8373 14.9888 28.0689 14.1352 26.7483C13.871 26.3402 13.526 25.9648 13.1056 25.6656C11.3261 24.3923 8.84743 24.7996 7.57353 26.5857C4.46618 30.9279 2.37886 35.0464 1.36689 38.8279C-0.158882 44.5144 1.13373 48.2493 2.4944 50.3779C2.501 50.3926 2.5079 50.4001 2.51449 50.4148C4.06501 52.8329 6.33055 54.5597 9.25529 55.5495C11.2336 56.2178 13.4923 56.5733 16.5194 56.6799C17.492 56.8943 18.1982 57.2634 19.2014 57.9481C19.6785 58.2714 20.0767 58.5841 20.5088 58.9488C20.5295 58.9713 21.2604 59.6084 21.463 59.7685C21.6166 59.8905 21.7564 59.9974 21.8969 60.09C22.4656 60.4677 23.0898 60.3859 23.4342 59.9242C23.756 59.4832 23.6961 58.8529 23.2749 58.4021C23.0952 58.2141 22.9149 58.0405 22.7198 57.8735C22.5527 57.7293 22.3778 57.5992 22.147 57.4235C22.0771 57.37 21.8109 57.1783 21.825 57.1861C21.6918 57.0939 21.594 57.0176 21.4961 56.9413C21.2372 56.7499 21.007 56.5598 20.7706 56.3477C20.5132 56.1203 20.4679 55.9957 20.4676 56.0029C20.4904 55.975 20.6934 55.9548 20.9987 56.0759C21.5882 56.303 23.1858 56.9263 23.4986 57.0406C23.7684 57.1458 24.0245 57.236 24.2877 57.3266C24.6647 57.458 25.0636 57.5831 25.5058 57.7101C27.0243 58.1569 27.7322 56.1015 26.2281 55.4821C24.5609 54.7981 23.7793 54.5052 21.9065 53.8991C21.7213 53.8408 21.5731 53.7623 21.4744 53.7076C21.6125 53.6846 21.8004 53.6782 22.031 53.6879C23.9041 53.7745 24.8332 53.8211 25.7696 53.868C26.3962 53.9017 26.8717 53.9219 28.3482 53.9989C30.2065 54.092 30.3267 51.7664 28.4687 51.666C27.4029 51.6064 26.5746 51.5641 25.6887 51.5194C25.0477 51.485 22.4253 51.3667 22.1371 51.3545C22.1083 51.3532 22.0866 51.3523 22.065 51.3514C22.0869 51.3451 22.1014 51.3457 22.1233 51.3394C22.9751 51.1663 23.5655 51.0325 24.091 50.896C24.2516 50.8523 24.4123 50.8086 24.5729 50.7649C24.887 50.6772 25.2014 50.5823 25.6254 50.4559C25.8813 50.3802 26.9642 50.0364 26.9933 50.0304C28.5074 49.5606 27.9523 47.329 26.3914 47.7103C25.9029 47.8267 25.472 47.9455 24.9822 48.0907C24.9894 48.091 24.1267 48.3503 23.893 48.4126C23.0895 48.6383 22.4202 48.7615 21.4354 48.8352C20.9865 48.8667 20.5011 48.7379 20.25 48.5325C20.0615 48.3801 20.0667 48.2577 20.3293 48.0235L21.1473 47.286C21.8076 46.6934 22.1145 45.7539 21.9959 44.9768C21.8542 44.0616 21.0985 43.6688 20.3477 44.3514C20.2501 44.441 19.3038 45.3101 19.0634 45.5309C19.0109 45.5792 19.0109 45.5792 18.9583 45.6274C18.7408 45.8203 18.5383 45.9993 18.3136 46.1918C16.3814 47.8418 15.3362 48.4902 14.2424 48.581C11.5571 48.2435 10.0585 47.4945 9.19151 46.1517C9.19181 46.1445 9.18461 46.1442 9.18491 46.137C8.27202 44.684 8.59658 42.4752 9.02521 40.877Z" fill="#4A4343"/>
</svg>
