<?xml version="1.0" encoding="utf-8"?>
<!-- Generator: Adobe Illustrator 22.1.0, SVG Export Plug-In . SVG Version: 6.00 Build 0)  -->
<svg version="1.1" id="Слой_1" xmlns="http://www.w3.org/2000/svg" xmlns:xlink="http://www.w3.org/1999/xlink" x="0px" y="0px"
	 viewBox="0 0 289 326" style="enable-background:new 0 0 289 326;" xml:space="preserve">
<style type="text/css">
	.st0{fill:#F8D4E0;}
	.st1{fill:#4A4343;}
	.st2{fill:none;}
	.st3{fill:#F7C778;}
	.st4{fill:#9BC3CB;}
</style>
<ellipse class="st0" cx="68" cy="107.2" rx="30.3" ry="30.1"/>
<path class="st1" d="M34.5,150.9v4.3h-1.4v-11.2c0.4,0,0.9,0,1.4,0c0.5,0,1,0,1.5,0c1.5,0,2.5,0.3,3.2,1c0.7,0.7,1,1.5,1,2.5
	c0,1-0.4,1.8-1.1,2.5c-0.7,0.7-1.7,1-3,1C35.5,151,34.9,151,34.5,150.9z M36.2,145.3c-0.2,0-0.8,0-1.7,0v4.3
	c0.7,0.1,1.2,0.1,1.6,0.1c0.8,0,1.5-0.2,1.9-0.6c0.5-0.4,0.7-1,0.7-1.7c0-0.7-0.2-1.2-0.7-1.6C37.7,145.5,37.1,145.3,36.2,145.3z
	 M41.9,149.6l-0.3-1c0.7-0.4,1.5-0.7,2.4-0.7c1,0,1.7,0.2,2.1,0.7c0.4,0.5,0.7,1.2,0.7,2.2v4.4h-1.2v-0.9c-0.6,0.7-1.3,1-2.3,1
	c-0.7,0-1.2-0.2-1.6-0.6c-0.4-0.4-0.6-0.9-0.6-1.6c0-0.7,0.3-1.3,0.8-1.7c0.5-0.4,1.2-0.6,2-0.6c0.8,0,1.4,0.2,1.8,0.5
	c0-0.8-0.1-1.4-0.3-1.7c-0.2-0.4-0.7-0.5-1.3-0.5C43.2,149,42.5,149.2,41.9,149.6z M43.6,154.2c0.7,0,1.3-0.3,1.9-0.9v-0.9
	c-0.4-0.3-1-0.5-1.6-0.5c-0.4,0-0.8,0.1-1.1,0.3c-0.3,0.2-0.4,0.5-0.4,0.9c0,0.4,0.1,0.6,0.3,0.8C42.9,154.1,43.2,154.2,43.6,154.2z
	 M54.4,153.3l0.6,0.9c-0.6,0.8-1.5,1.2-2.8,1.2c-1.2,0-2.1-0.3-2.8-1c-0.7-0.7-1.1-1.6-1.1-2.7c0-1.1,0.3-1.9,1-2.7
	c0.7-0.7,1.6-1.1,2.6-1.1c1.3,0,2.2,0.3,2.8,0.9l-0.6,1c-0.6-0.5-1.2-0.8-2.1-0.8c-0.7,0-1.3,0.2-1.7,0.7c-0.5,0.5-0.7,1.1-0.7,1.8
	c0,0.8,0.2,1.4,0.7,1.9c0.5,0.5,1.1,0.7,1.9,0.7C53.2,154.2,53.8,153.9,54.4,153.3z M61.8,153.3l0.6,0.9c-0.6,0.8-1.5,1.2-2.8,1.2
	c-1.2,0-2.1-0.3-2.8-1c-0.7-0.7-1.1-1.6-1.1-2.7c0-1.1,0.3-1.9,1-2.7c0.7-0.7,1.6-1.1,2.6-1.1c1.3,0,2.2,0.3,2.8,0.9l-0.6,1
	c-0.6-0.5-1.2-0.8-2.1-0.8c-0.7,0-1.3,0.2-1.7,0.7c-0.5,0.5-0.7,1.1-0.7,1.8c0,0.8,0.2,1.4,0.7,1.9c0.5,0.5,1.1,0.7,1.9,0.7
	C60.6,154.2,61.3,153.9,61.8,153.3z M68.7,148.1h1.7l-3.2,3.4l3.5,3.8h-1.8l-3.2-3.7L68.7,148.1z M65.4,155.2h-1.3v-7.2h1.3V155.2z
	 M72.4,149.6l-0.3-1c0.7-0.4,1.5-0.7,2.4-0.7c1,0,1.7,0.2,2.1,0.7c0.4,0.5,0.7,1.2,0.7,2.2v4.4h-1.2v-0.9c-0.6,0.7-1.3,1-2.3,1
	c-0.7,0-1.2-0.2-1.6-0.6c-0.4-0.4-0.6-0.9-0.6-1.6c0-0.7,0.3-1.3,0.8-1.7c0.5-0.4,1.2-0.6,2-0.6c0.8,0,1.4,0.2,1.8,0.5
	c0-0.8-0.1-1.4-0.3-1.7c-0.2-0.4-0.7-0.5-1.3-0.5C73.8,149,73.1,149.2,72.4,149.6z M74.2,154.2c0.7,0,1.3-0.3,1.9-0.9v-0.9
	c-0.4-0.3-1-0.5-1.6-0.5c-0.4,0-0.8,0.1-1.1,0.3c-0.3,0.2-0.4,0.5-0.4,0.9c0,0.4,0.1,0.6,0.3,0.8C73.5,154.1,73.8,154.2,74.2,154.2z
	 M87.1,148.1h1.6l-2.6,3.5l2.8,3.7h-1.6l-2.7-3.7L87.1,148.1z M84.3,155.2H83v-7.2h1.3V155.2z M78.5,155.2l2.8-3.7l-2.6-3.5h1.6
	l2.5,3.5l-2.6,3.7H78.5z M95.7,149.9l-4.2,5.4h-1.3v-7.2h1.3v5.4l4.2-5.4H97v7.2h-1.3V149.9z M99,154.5c0-0.3,0.1-0.5,0.2-0.6
	c0.2-0.2,0.4-0.2,0.7-0.2c0.3,0,0.6,0.1,0.8,0.4c0.2,0.3,0.3,0.6,0.3,1.1c0,0.6-0.2,1.1-0.5,1.5c-0.3,0.4-0.7,0.7-1.3,0.9L99,157
	c0.6-0.2,0.9-0.5,1-1.1c0.1-0.4,0.1-0.6,0-0.8c-0.1,0.1-0.2,0.1-0.4,0.1c-0.2,0-0.3-0.1-0.4-0.2C99.1,154.9,99,154.7,99,154.5z
	 M22.8,164.1h1.3v7.2h-1.3v-2.8c-0.6,0.4-1.2,0.5-2,0.5c-1.7,0-2.6-0.9-2.6-2.8v-2.2h1.4v2c0,1.1,0.5,1.7,1.6,1.7
	c0.7,0,1.2-0.1,1.6-0.4V164.1z M28.1,165.3h-2.6v-1.3H32v1.3h-2.6v5.9h-1.3V165.3z M33.8,170.4c-0.7-0.7-1.1-1.6-1.1-2.7
	c0-1.1,0.4-2,1.1-2.7c0.7-0.7,1.6-1.1,2.8-1.1c1.1,0,2.1,0.4,2.8,1.1c0.7,0.7,1.1,1.6,1.1,2.7c0,1.1-0.4,2-1.1,2.7
	c-0.7,0.7-1.6,1.1-2.8,1.1C35.4,171.4,34.5,171.1,33.8,170.4z M34.8,165.8c-0.5,0.5-0.7,1.1-0.7,1.8c0,0.8,0.2,1.4,0.7,1.8
	c0.5,0.5,1.1,0.7,1.8,0.7c0.7,0,1.3-0.2,1.8-0.7c0.5-0.5,0.7-1.1,0.7-1.9c0-0.7-0.2-1.3-0.7-1.8c-0.5-0.5-1.1-0.7-1.8-0.7
	C35.8,165.1,35.2,165.3,34.8,165.8z M47.5,165.3h-2.6v-1.3h6.6v1.3h-2.6v5.9h-1.3V165.3z M55.2,171.2h-2.3v-7.2h1.3v2.2h1.2
	c1,0,1.7,0.2,2.2,0.7c0.5,0.4,0.7,1,0.7,1.8c0,0.7-0.2,1.3-0.7,1.8C57,171,56.2,171.2,55.2,171.2z M60.8,171.2h-1.3v-7.2h1.3V171.2z
	 M55.1,167.4h-0.9v2.6h0.9c0.6,0,1.1-0.1,1.3-0.3c0.3-0.2,0.4-0.5,0.4-1C56.8,167.9,56.2,167.4,55.1,167.4z M71.8,164.1h1.5
	l-2.9,7.2c-0.5,1.3-1,2.1-1.4,2.5c-0.4,0.4-0.9,0.7-1.4,0.7c-0.5,0-0.9-0.1-1.4-0.4l0.4-1c0.3,0.2,0.6,0.2,0.8,0.2
	c0.3,0,0.6-0.1,0.8-0.4c0.2-0.3,0.5-0.7,0.7-1.2l0.2-0.4l-3.5-7.2h1.5l2.1,4.6c0,0.1,0.2,0.4,0.4,1.1c0.1-0.4,0.2-0.7,0.3-1.1
	L71.8,164.1z M75.9,171.2h-1.3v-7.2h1.2l2.8,3.6l2.6-3.6h1.1v7.2H81V166l-2.5,3.3h0l-2.6-3.3V171.2z M90.3,169.5l0.4,1
	c-0.7,0.6-1.6,0.9-2.7,0.9c-1.2,0-2.1-0.3-2.8-1c-0.7-0.7-1.1-1.6-1.1-2.7c0-1.1,0.3-2,1-2.7c0.7-0.7,1.6-1.1,2.7-1.1
	c1,0,1.8,0.3,2.4,0.9c0.6,0.6,1,1.4,1,2.4c0,0.3,0,0.6-0.1,0.9h-5.5c0.1,0.7,0.3,1.2,0.8,1.6c0.5,0.4,1,0.6,1.8,0.6
	C89,170.2,89.7,170,90.3,169.5z M87.8,165.1c-0.6,0-1.2,0.2-1.6,0.5c-0.4,0.4-0.6,0.8-0.7,1.4h4.4c0-0.6-0.2-1.1-0.6-1.4
	C88.9,165.3,88.4,165.1,87.8,165.1z M98.5,169.5l0.4,1c-0.7,0.6-1.6,0.9-2.7,0.9c-1.2,0-2.1-0.3-2.8-1c-0.7-0.7-1.1-1.6-1.1-2.7
	c0-1.1,0.3-2,1-2.7c0.7-0.7,1.6-1.1,2.7-1.1c1,0,1.8,0.3,2.4,0.9c0.6,0.6,1,1.4,1,2.4c0,0.3,0,0.6-0.1,0.9h-5.5
	c0.1,0.7,0.3,1.2,0.8,1.6c0.5,0.4,1,0.6,1.8,0.6C97.2,170.2,98,170,98.5,169.5z M96,165.1c-0.6,0-1.2,0.2-1.6,0.5
	c-0.4,0.4-0.6,0.8-0.7,1.4h4.4c0-0.6-0.2-1.1-0.6-1.4C97.1,165.3,96.6,165.1,96,165.1z M110.3,171.2h-9.1v-7.2h1.3v6h2.6v-6h1.3v6
	h2.6v-6h1.3V171.2z M115,171.2h-2.4v-7.2h1.3v2.2h1.3c1,0,1.7,0.2,2.2,0.7c0.5,0.4,0.7,1,0.7,1.8c0,0.7-0.2,1.3-0.7,1.8
	C116.8,171,116,171.2,115,171.2z M114.9,167.4h-1.1v2.6h1.1c1.2,0,1.7-0.4,1.7-1.3C116.7,167.9,116.1,167.4,114.9,167.4z"/>
<path class="st2" d="M55.5,119.8h25v-25h-25V119.8z"/>
<ellipse class="st3" cx="230.4" cy="107.2" rx="30.3" ry="30.1"/>
<path class="st1" d="M191.3,155.2H190v-5.1h-6.2v5.1h-1.4V144h1.4v4.8h6.2V144h1.4V155.2z M194.5,149.6l-0.3-1
	c0.7-0.4,1.5-0.7,2.4-0.7c1,0,1.7,0.2,2.1,0.7c0.4,0.5,0.7,1.2,0.7,2.2v4.4h-1.2v-0.9c-0.6,0.7-1.3,1-2.3,1c-0.7,0-1.2-0.2-1.6-0.6
	c-0.4-0.4-0.6-0.9-0.6-1.6c0-0.7,0.3-1.3,0.8-1.7c0.5-0.4,1.2-0.6,2-0.6c0.8,0,1.4,0.2,1.8,0.5c0-0.8-0.1-1.4-0.3-1.7
	s-0.7-0.5-1.3-0.5C195.9,149,195.2,149.2,194.5,149.6z M196.3,154.2c0.7,0,1.3-0.3,1.9-0.9v-0.9c-0.4-0.3-1-0.5-1.6-0.5
	c-0.4,0-0.8,0.1-1.1,0.3c-0.3,0.2-0.4,0.5-0.4,0.9c0,0.4,0.1,0.6,0.3,0.8C195.6,154.1,195.9,154.2,196.3,154.2z M206.9,149.9
	l-4.2,5.4h-1.3V148h1.3v5.4l4.2-5.4h1.3v7.2h-1.3V149.9z M202.5,144.4h1.2c0.1,0.8,0.5,1.3,1.2,1.3c0.7,0,1.1-0.4,1.2-1.3h1.2
	c0,0.7-0.2,1.2-0.7,1.6c-0.4,0.4-1,0.6-1.7,0.6c-0.8,0-1.4-0.2-1.8-0.6C202.7,145.6,202.5,145,202.5,144.4z M210.8,157h-1.2v-3h0.9
	c0.3-0.3,0.5-0.9,0.7-1.6c0.2-0.7,0.3-1.6,0.4-2.5l0.1-1.9h4.9v6h1.2v3h-1.2v-1.8h-5.8V157z M212.9,149.2l-0.1,1.2
	c-0.1,0.8-0.2,1.5-0.4,2.2c-0.2,0.7-0.4,1.1-0.6,1.4h3.5v-4.8H212.9z M224.6,149.9l-4.2,5.4h-1.3V148h1.3v5.4l4.2-5.4h1.3v7.2h-1.3
	V149.9z M233.5,149.3h-2.6V148h6.6v1.3h-2.6v5.9h-1.3V149.3z M239.2,154.4c-0.7-0.7-1.1-1.6-1.1-2.7c0-1.1,0.4-2,1.1-2.7
	c0.7-0.7,1.6-1.1,2.8-1.1c1.1,0,2.1,0.4,2.8,1.1c0.7,0.7,1.1,1.6,1.1,2.7s-0.4,2-1.1,2.7c-0.7,0.7-1.6,1.1-2.8,1.1
	C240.9,155.4,239.9,155.1,239.2,154.4z M240.2,149.8c-0.5,0.5-0.7,1.1-0.7,1.8s0.2,1.4,0.7,1.8c0.5,0.5,1.1,0.7,1.8,0.7
	c0.7,0,1.3-0.2,1.8-0.7c0.5-0.5,0.7-1.1,0.7-1.9c0-0.7-0.2-1.3-0.7-1.8c-0.5-0.5-1-0.7-1.8-0.7C241.3,149.1,240.7,149.3,240.2,149.8
	z M247.4,154.5c0-0.3,0.1-0.5,0.2-0.6c0.2-0.2,0.4-0.2,0.7-0.2c0.3,0,0.6,0.1,0.8,0.4c0.2,0.3,0.3,0.7,0.3,1.1
	c0,0.6-0.2,1.1-0.5,1.5c-0.3,0.4-0.7,0.7-1.3,0.9l-0.4-0.6c0.6-0.2,0.9-0.5,1-1.1c0.1-0.4,0.1-0.6,0-0.8c-0.1,0.1-0.2,0.1-0.4,0.1
	c-0.2,0-0.3-0.1-0.4-0.2C247.4,154.9,247.4,154.7,247.4,154.5z M258.2,148h1.3v7.2h-1.3v-2.8c-0.6,0.4-1.2,0.5-2,0.5
	c-1.7,0-2.6-0.9-2.6-2.8V148h1.4v2c0,1.1,0.5,1.7,1.6,1.7c0.7,0,1.2-0.1,1.6-0.4V148z M263.6,149.3h-2.6V148h6.6v1.3h-2.6v5.9h-1.3
	V149.3z M269.2,154.4c-0.7-0.7-1.1-1.6-1.1-2.7c0-1.1,0.4-2,1.1-2.7c0.7-0.7,1.6-1.1,2.8-1.1c1.1,0,2.1,0.4,2.8,1.1
	c0.7,0.7,1.1,1.6,1.1,2.7s-0.4,2-1.1,2.7c-0.7,0.7-1.6,1.1-2.8,1.1C270.9,155.4,269.9,155.1,269.2,154.4z M270.2,149.8
	c-0.5,0.5-0.7,1.1-0.7,1.8s0.2,1.4,0.7,1.8c0.5,0.5,1.1,0.7,1.8,0.7s1.3-0.2,1.8-0.7c0.5-0.5,0.7-1.1,0.7-1.9c0-0.7-0.2-1.3-0.7-1.8
	c-0.5-0.5-1.1-0.7-1.8-0.7S270.7,149.3,270.2,149.8z M183.4,165.3h-2.6V164h6.6v1.3h-2.6v5.9h-1.3V165.3z M194.1,169.5l0.4,1
	c-0.7,0.6-1.6,0.9-2.7,0.9c-1.2,0-2.1-0.3-2.8-1c-0.7-0.7-1.1-1.6-1.1-2.7c0-1.1,0.3-2,1-2.7c0.7-0.7,1.6-1.1,2.7-1.1
	c1,0,1.8,0.3,2.4,0.9c0.6,0.6,1,1.4,1,2.4c0,0.3,0,0.6-0.1,0.9h-5.5c0.1,0.7,0.3,1.2,0.8,1.6c0.5,0.4,1,0.6,1.8,0.6
	C192.8,170.2,193.6,170,194.1,169.5z M191.6,165.1c-0.6,0-1.2,0.2-1.6,0.5c-0.4,0.4-0.6,0.8-0.7,1.4h4.4c0-0.6-0.2-1.1-0.6-1.4
	C192.7,165.3,192.2,165.1,191.6,165.1z M202.3,159.9l0.7,1c-0.3,0.4-0.6,0.6-0.9,0.7c-0.4,0.1-0.8,0.2-1.3,0.3
	c-0.5,0.1-1,0.2-1.4,0.4c-1.1,0.5-1.7,1.7-1.8,3.5h0c0.2-0.5,0.6-0.9,1.1-1.2c0.5-0.3,1.1-0.5,1.7-0.5c1,0,1.8,0.3,2.4,1
	c0.6,0.7,0.9,1.5,0.9,2.6c0,1-0.3,1.9-1,2.6c-0.7,0.7-1.6,1.1-2.7,1.1c-1.2,0-2.1-0.4-2.8-1.2c-0.7-0.8-1-1.9-1-3.3
	c0-3.1,0.9-5.1,2.7-5.8c0.4-0.2,0.9-0.3,1.4-0.4c0.4-0.1,0.7-0.1,0.9-0.2c0.2,0,0.4-0.1,0.6-0.2C202,160.2,202.2,160.1,202.3,159.9z
	 M197.6,167.2c0,0.9,0.2,1.7,0.7,2.2c0.4,0.6,1,0.8,1.7,0.8c0.7,0,1.3-0.2,1.7-0.7c0.4-0.5,0.7-1,0.7-1.7c0-0.7-0.2-1.3-0.6-1.8
	c-0.4-0.4-1-0.7-1.7-0.7c-0.7,0-1.2,0.2-1.6,0.5C198,166.2,197.7,166.7,197.6,167.2z M211.3,169.5l0.4,1c-0.7,0.6-1.6,0.9-2.7,0.9
	c-1.2,0-2.1-0.3-2.8-1c-0.7-0.7-1.1-1.6-1.1-2.7c0-1.1,0.3-2,1-2.7c0.6-0.7,1.6-1.1,2.7-1.1c1,0,1.8,0.3,2.4,0.9
	c0.6,0.6,1,1.4,1,2.4c0,0.3,0,0.6-0.1,0.9h-5.5c0.1,0.7,0.3,1.2,0.8,1.6c0.5,0.4,1,0.6,1.8,0.6C210,170.2,210.7,170,211.3,169.5z
	 M208.7,165.1c-0.6,0-1.2,0.2-1.6,0.5c-0.4,0.4-0.6,0.8-0.7,1.4h4.4c0-0.6-0.2-1.1-0.6-1.4C209.9,165.3,209.4,165.1,208.7,165.1z
	 M224,171.2h-1.3v-3h-4v3h-1.3V164h1.3v3h4v-3h1.3V171.2z M227.6,174.4h-1.3V164h1.3v0.8c0.3-0.3,0.6-0.5,1.1-0.7
	c0.4-0.2,0.9-0.3,1.4-0.3c1,0,1.8,0.3,2.4,1c0.6,0.7,0.9,1.5,0.9,2.6c0,1.1-0.3,2-1,2.8c-0.7,0.7-1.6,1.1-2.7,1.1
	c-0.9,0-1.5-0.2-2-0.5V174.4z M229.7,165.1c-0.9,0-1.5,0.3-2.1,1v3.6c0.6,0.4,1.2,0.6,1.9,0.6c0.8,0,1.4-0.2,1.8-0.7
	c0.5-0.5,0.7-1.1,0.7-1.9c0-0.8-0.2-1.4-0.6-1.8C231,165.3,230.4,165.1,229.7,165.1z M235.6,165.6l-0.3-1c0.7-0.4,1.5-0.7,2.4-0.7
	c1,0,1.7,0.2,2.1,0.7c0.4,0.5,0.7,1.2,0.7,2.2v4.4h-1.2v-0.9c-0.6,0.7-1.3,1-2.3,1c-0.7,0-1.2-0.2-1.6-0.6c-0.4-0.4-0.6-0.9-0.6-1.6
	c0-0.7,0.3-1.3,0.8-1.7c0.5-0.4,1.2-0.6,2-0.6c0.8,0,1.4,0.2,1.8,0.5c0-0.8-0.1-1.4-0.3-1.7s-0.7-0.5-1.3-0.5
	C237,165,236.3,165.2,235.6,165.6z M237.4,170.2c0.7,0,1.3-0.3,1.9-0.9v-0.9c-0.4-0.3-1-0.5-1.6-0.5c-0.4,0-0.8,0.1-1.1,0.3
	c-0.3,0.2-0.4,0.5-0.4,0.9c0,0.4,0.1,0.6,0.3,0.8C236.7,170.1,237,170.2,237.4,170.2z M242.6,171.2V164c0.1,0,0.1,0,0.2,0
	c0.1,0,0.2,0,0.4,0c0.2,0,0.3,0,0.5,0c0.8,0,1.3,0,1.5,0c2.1,0,3.1,0.6,3.1,1.9c0,0.4-0.1,0.8-0.4,1.1c-0.3,0.3-0.6,0.5-1,0.5v0
	c1.1,0.2,1.7,0.8,1.7,1.7c0,1.4-1.1,2.1-3.3,2.1c-0.1,0-0.6,0-1.4,0c-0.2,0-0.3,0-0.5,0c-0.2,0-0.3,0-0.4,0
	C242.8,171.2,242.7,171.2,242.6,171.2z M245.4,168h-1.5v2.2c0.8,0,1.3,0,1.5,0c1.2,0,1.8-0.4,1.8-1.2
	C247.2,168.4,246.6,168,245.4,168z M245.3,165c-0.3,0-0.8,0-1.4,0v2.1h1.6c0.4,0,0.8-0.1,1.1-0.3c0.3-0.2,0.4-0.5,0.4-0.8
	C247,165.4,246.4,165,245.3,165z M256,165.9l-4.2,5.4h-1.3V164h1.3v5.4l4.2-5.4h1.3v7.2H256V165.9z M261.3,165.3h-2.6V164h6.6v1.3
	h-2.6v5.9h-1.3V165.3z M271.9,169.3l0.6,0.9c-0.6,0.8-1.5,1.2-2.8,1.2c-1.2,0-2.1-0.3-2.8-1c-0.7-0.7-1.1-1.6-1.1-2.7
	c0-1.1,0.3-1.9,1-2.7c0.7-0.7,1.6-1.1,2.6-1.1c1.3,0,2.2,0.3,2.8,0.9l-0.6,1c-0.6-0.5-1.2-0.8-2.1-0.8c-0.7,0-1.3,0.2-1.7,0.7
	c-0.5,0.5-0.7,1.1-0.7,1.8c0,0.8,0.2,1.4,0.7,1.9c0.5,0.5,1.1,0.7,1.9,0.7C270.7,170.2,271.4,169.9,271.9,169.3z M277,164h2.2v7.2
	H278v-2.4h-1.4l-1.8,2.4h-1.6l2.1-2.7c-0.4-0.1-0.8-0.3-1.1-0.7c-0.3-0.4-0.4-0.8-0.4-1.4c0-0.7,0.3-1.3,0.8-1.7
	C275.1,164.3,275.9,164,277,164z M275.1,166.5c0,0.3,0.1,0.6,0.4,0.8c0.3,0.2,0.6,0.3,0.9,0.3h1.5v-2.4h-1.2c-0.5,0-1,0.1-1.2,0.3
	C275.3,165.8,275.1,166.1,275.1,166.5z"/>
<path class="st2" d="M217.9,121.1h25v-25h-25V121.1z"/>
<circle class="st4" cx="148.3" cy="247.5" r="30.5"/>
<path class="st1" d="M116,304h-1.5v-12.6h1.5l4.7,6.5l4.5-6.5h1.5V304h-1.5v-10.2l-4.5,6.3h-0.2l-4.5-6.2V304z M130.4,297.6
	l-0.4-1.2c0.8-0.5,1.7-0.7,2.7-0.7c1.1,0,1.9,0.3,2.4,0.8c0.5,0.5,0.7,1.4,0.7,2.5v5h-1.4v-1c-0.6,0.8-1.5,1.2-2.6,1.2
	c-0.7,0-1.3-0.2-1.8-0.7c-0.5-0.5-0.7-1.1-0.7-1.8c0-0.8,0.3-1.4,0.8-1.9c0.6-0.5,1.3-0.7,2.2-0.7c0.9,0,1.5,0.2,2,0.5
	c0-0.9-0.1-1.6-0.4-2c-0.3-0.4-0.7-0.6-1.5-0.6C131.9,297,131.1,297.2,130.4,297.6z M132.3,302.8c0.8,0,1.5-0.3,2.1-1v-1
	c-0.5-0.4-1.1-0.5-1.8-0.5c-0.5,0-0.9,0.1-1.2,0.4c-0.3,0.2-0.5,0.6-0.5,1c0,0.4,0.1,0.7,0.4,0.9
	C131.5,302.7,131.9,302.8,132.3,302.8z M143.7,295.9h1.7l-2.9,3.9l3.1,4.2h-1.8l-2.4-3.3L139,304h-1.7l3.1-4.1l-2.9-4h1.8l2.2,3.1
	L143.7,295.9z M154.7,304h-1.4v-3.4h-4.5v3.4h-1.4v-8.1h1.4v3.3h4.5v-3.3h1.4V304z M163.4,298l-4.7,6h-1.4v-8.1h1.4v6l4.7-6h1.4v8.1
	h-1.4V298z M173.7,301.8l0.7,1c-0.7,0.9-1.7,1.4-3.1,1.4c-1.3,0-2.3-0.4-3.1-1.2c-0.8-0.8-1.2-1.8-1.2-3.1c0-1.2,0.4-2.2,1.2-3
	s1.8-1.2,2.9-1.2c1.4,0,2.5,0.4,3.2,1.1l-0.7,1.1c-0.6-0.6-1.4-0.8-2.3-0.8c-0.8,0-1.4,0.3-2,0.8c-0.5,0.5-0.8,1.2-0.8,2.1
	c0,0.9,0.3,1.6,0.8,2.1c0.6,0.5,1.3,0.8,2.1,0.8C172.3,302.8,173.1,302.5,173.7,301.8z M179,304h-2.7v-8.1h1.4v2.4h1.5
	c1.1,0,1.9,0.3,2.4,0.8c0.5,0.5,0.8,1.2,0.8,2c0,0.8-0.3,1.5-0.8,2.1C181.1,303.7,180.2,304,179,304z M178.9,299.7h-1.2v3h1.2
	c1.3,0,2-0.5,2-1.5C180.9,300.2,180.2,299.7,178.9,299.7z M117.8,319.8l0.7,1c-0.7,0.9-1.7,1.4-3.1,1.4c-1.3,0-2.3-0.4-3.2-1.2
	c-0.8-0.8-1.2-1.8-1.2-3.1c0-1.2,0.4-2.2,1.2-3s1.8-1.2,2.9-1.2c1.4,0,2.5,0.4,3.2,1.1l-0.7,1.1c-0.6-0.6-1.4-0.8-2.3-0.8
	c-0.8,0-1.4,0.3-2,0.8c-0.5,0.5-0.8,1.2-0.8,2.1c0,0.9,0.3,1.6,0.8,2.1c0.6,0.5,1.3,0.8,2.1,0.8
	C116.4,320.8,117.1,320.5,117.8,319.8z M124.6,324h-1.4v-3.3h1c0.3-0.4,0.6-1,0.8-1.8c0.2-0.8,0.4-1.8,0.4-2.8l0.1-2.1h5.5v6.8h1.3
	v3.3h-1.3v-2h-6.6V324z M127,315.2l-0.1,1.4c-0.1,0.9-0.2,1.7-0.4,2.5c-0.2,0.7-0.4,1.3-0.7,1.6h3.9v-5.4H127z M135.5,325.6h-1.4
	v-11.7h1.4v1c0.3-0.3,0.7-0.6,1.2-0.8c0.5-0.2,1-0.3,1.6-0.3c1.2,0,2.1,0.4,2.7,1.2c0.7,0.8,1,1.7,1,3c0,1.2-0.4,2.3-1.2,3.1
	c-0.8,0.8-1.8,1.2-3,1.2c-1,0-1.7-0.2-2.3-0.6V325.6z M137.8,315.1c-1,0-1.7,0.4-2.3,1.1v4c0.6,0.4,1.4,0.6,2.2,0.6
	c0.9,0,1.5-0.3,2-0.8c0.5-0.6,0.8-1.3,0.8-2.1c0-0.9-0.2-1.5-0.7-2C139.3,315.3,138.7,315.1,137.8,315.1z M149.5,313.9h1.6l-3.2,8.1
	c-0.6,1.4-1.1,2.4-1.5,2.8c-0.5,0.5-1,0.8-1.6,0.8c-0.5,0-1-0.2-1.5-0.5l0.5-1.1c0.4,0.2,0.7,0.3,0.9,0.3c0.3,0,0.6-0.1,0.9-0.4
	c0.3-0.3,0.6-0.8,0.8-1.4l0.2-0.4l-3.9-8.1h1.7l2.4,5.1c0,0.1,0.2,0.5,0.5,1.2c0.1-0.4,0.2-0.8,0.4-1.2L149.5,313.9z M154,322h-1.4
	v-8.1h5.1v1.4H154V322z M165.2,316l-4.7,6h-1.4v-8.1h1.4v6l4.7-6h1.4v8.1h-1.4V316z M170.7,322h-1.4v-8.1h1.3l3.1,4l3-4h1.3v8.1
	h-1.4v-5.9l-2.8,3.8h-0.1l-2.9-3.8V322z M186.7,316l-4.7,6h-1.4v-8.1h1.4v6l4.7-6h1.4v8.1h-1.4V316z"/>
<path class="st2" d="M135.8,258.8h25v-25h-25V258.8z"/>
<path class="st4" d="M252.7,244.8c-7.3,2.5-17.2,3.6-28.6,3.3c-4.4-0.1-8.3,2.5-9.9,6.3c-0.5,1.2-0.8,2.5-0.8,3.9
	c-0.2,5.8,4.4,10.6,10.2,10.8c14.1,0.4,26.2-1.1,36-4.4c14.7-5.1,21-13.4,23.7-19.5c0,0,0-0.1,0-0.1c3-7,3.5-14.5,1.3-22.4
	c-1.4-5.3-4-10.8-8.2-17.6c-1-2.5-1.2-4.5-1.2-7.8c0-1.5,0.1-2.9,0.3-4.3c0-0.1,0.3-2.6,0.4-3.3c0-0.5,0.1-1,0.1-1.4
	c0-1.8-1.1-3.1-2.6-3.1c-1.4-0.1-2.7,1-3.1,2.6c-0.1,0.7-0.3,1.3-0.3,2c-0.1,0.6-0.1,1.2-0.1,1.9c0,0.2,0,1.1,0,1
	c0,0.4,0,0.8-0.1,1.1c0,0.9-0.1,1.6-0.2,2.5c-0.1,0.9-0.3,1.2-0.3,1.2c-0.1,0-0.4-0.4-0.6-1.3c-0.4-1.6-1.4-6-1.6-6.9
	c-0.2-0.7-0.4-1.4-0.5-2.1c-0.3-1-0.6-2.1-1-3.2c-1.2-4-6.8-2.5-6,1.7c1,4.7,1.5,6.8,2.9,11.8c0.1,0.5,0.2,0.9,0.2,1.2
	c-0.2-0.3-0.5-0.7-0.9-1.2c-2.6-4.3-3.8-6.3-5.1-8.5c-0.9-1.4-1.5-2.5-3.5-5.9c-2.5-4.2-7.8-1.1-5.3,3.2c1.4,2.4,2.6,4.3,3.8,6.3
	c0.9,1.4,4.5,7.4,4.9,8c0,0.1,0.1,0.1,0.1,0.2c0,0-0.1-0.1-0.1-0.1c-1.6-1.6-2.8-2.7-3.9-3.7c-0.3-0.3-0.7-0.6-1-0.9
	c-0.7-0.5-1.3-1.1-2.2-1.9c-0.5-0.5-2.9-2.3-3-2.4c-3.3-2.6-7.3,1.9-4.2,4.7c1,0.9,1.9,1.7,2.9,2.5c0,0,1.8,1.5,2.3,1.9
	c1.7,1.4,2.9,2.7,4.5,4.8c0.7,0.9,1.2,2.2,1.1,3c-0.1,0.6-0.3,0.8-1.2,0.6l-2.8-0.7c-2.3-0.6-4.8,0.1-6.3,1.5
	c-1.8,1.7-1.6,3.9,1.1,4.5c0.3,0.1,3.6,0.9,4.5,1.1c0.2,0,0.2,0,0.4,0.1c0.7,0.2,1.4,0.4,2.2,0.6c6.5,1.8,9.4,3.1,11.2,5.4
	c3.2,6.4,3.8,10.8,2.1,14.7c0,0,0,0,0,0C262.1,240.9,256.8,243.4,252.7,244.8z"/>
<path class="st0" d="M24,223c0.9-7.7,4.2-17.1,9.5-27.2c2-3.9,1.4-8.5-1.4-11.7c-0.8-1-1.9-1.8-3.1-2.4c-5.1-2.7-11.5-0.7-14.1,4.5
	c-6.5,12.5-10.4,24.1-11.6,34.4c-1.9,15.5,2.9,24.7,7.3,29.8c0,0,0.1,0.1,0.1,0.1c5,5.7,11.5,9.4,19.6,10.9c5.4,1,11.5,1.1,19.4,0.2
	c2.6,0.2,4.6,0.9,7.5,2.3c1.4,0.7,2.5,1.3,3.8,2.1c0.1,0,2.2,1.4,2.8,1.8c0.4,0.3,0.8,0.5,1.3,0.7c1.6,0.8,3.2,0.3,3.9-1
	c0.7-1.3,0.3-2.9-1-3.9c-0.5-0.4-1.1-0.8-1.7-1.2c-0.5-0.3-1-0.6-1.7-1c-0.2-0.1-1-0.5-0.9-0.5c-0.4-0.2-0.7-0.4-1-0.5
	c-0.8-0.4-1.4-0.8-2.1-1.3c-0.8-0.5-0.9-0.8-0.9-0.8c0-0.1,0.6-0.2,1.4,0c1.6,0.4,6,1.4,6.9,1.6c0.7,0.2,1.4,0.3,2.2,0.4
	c1,0.2,2.1,0.4,3.3,0.5c4.1,0.6,5.2-5.1,1.1-6.1c-4.6-1.2-6.8-1.6-11.9-2.5c-0.5-0.1-0.9-0.2-1.2-0.3c0.4-0.1,0.8-0.2,1.5-0.2
	c4.9-0.5,7.4-0.7,9.8-0.9c1.7-0.2,2.9-0.3,6.8-0.6c4.9-0.5,4.3-6.6-0.6-6.2c-2.8,0.2-5,0.4-7.3,0.7c-1.7,0.2-8.6,0.8-9.4,0.9
	c-0.1,0-0.1,0-0.2,0c0.1,0,0.1,0,0.1-0.1c2.2-0.8,3.7-1.3,5-1.9c0.4-0.2,0.8-0.3,1.2-0.5c0.8-0.4,1.6-0.7,2.6-1.2
	c0.6-0.3,3.4-1.6,3.4-1.6c3.8-1.8,1.5-7.4-2.4-5.8c-1.2,0.5-2.3,1-3.5,1.5c0,0-2.2,1-2.7,1.2c-2,0.9-3.7,1.5-6.3,2
	c-1.2,0.2-2.5,0.1-3.2-0.3c-0.5-0.3-0.6-0.6,0-1.4l1.9-2.2c1.5-1.8,2-4.4,1.4-6.4c-0.7-2.4-2.8-3.1-4.5-1c-0.2,0.3-2.4,2.9-2.9,3.6
	c-0.1,0.2-0.1,0.2-0.2,0.3c-0.5,0.6-1,1.1-1.5,1.7c-4.4,5-6.9,7.1-9.8,7.8c-7.1,0.1-11.4-1.3-14.1-4.5c0,0,0,0,0,0
	C23.4,233.2,23.5,227.3,24,223z"/>
<path class="st3" d="M158.4,41.5c5.9,5,12,12.8,17.7,22.8c2.2,3.9,6.4,5.8,10.6,5.2c1.3-0.2,2.5-0.6,3.7-1.3c5-2.9,6.8-9.3,3.9-14.3
	c-7-12.3-14.5-21.9-22.5-28.5c-12-10-22.4-11-29-10.1c0,0-0.1,0-0.1,0c-7.5,1-14.2,4.6-19.8,10.5c-3.8,4-7.2,9-10.8,16.2
	c-1.6,2.1-3.3,3.4-6,5c-1.3,0.8-2.5,1.4-3.9,2c-0.1,0-2.4,1.1-3,1.4c-0.5,0.2-0.9,0.5-1.3,0.7c-1.5,0.9-2,2.5-1.3,3.9
	c0.7,1.3,2.3,1.8,3.8,1.3c0.6-0.2,1.3-0.5,1.9-0.8c0.5-0.2,1-0.5,1.7-0.9c0.2-0.1,1-0.5,0.9-0.5c0.4-0.2,0.7-0.4,1-0.5
	c0.8-0.4,1.5-0.8,2.2-1.1c0.8-0.4,1.2-0.3,1.2-0.3c0,0.1-0.1,0.6-0.8,1.2c-1.2,1.2-4.4,4.3-5.1,4.9c-0.5,0.5-1,1-1.6,1.6
	c-0.7,0.8-1.5,1.6-2.3,2.5c-2.8,3.1,1.4,7.1,4.6,4.2c3.5-3.3,5.1-4.8,8.6-8.6c0.4-0.4,0.7-0.6,0.9-0.8c-0.1,0.3-0.3,0.8-0.6,1.4
	c-2.3,4.4-3.4,6.6-4.6,8.8c-0.8,1.5-1.3,2.6-3.2,6c-2.3,4.4,3.2,7.2,5.5,2.9c1.3-2.5,2.3-4.4,3.4-6.5c0.8-1.5,4-7.7,4.3-8.3
	c0-0.1,0.1-0.1,0.1-0.2c0,0.1,0,0.1,0,0.1c-0.5,2.2-0.9,3.8-1.1,5.2c-0.1,0.4-0.2,0.9-0.2,1.3c-0.1,0.8-0.3,1.7-0.4,2.9
	c-0.1,0.7-0.5,3.7-0.5,3.8c-0.6,4.2,5.4,5.3,6.2,1.1c0.3-1.3,0.4-2.5,0.6-3.8c0,0,0.3-2.4,0.4-3c0.3-2.2,0.8-3.9,1.7-6.4
	c0.4-1.1,1.3-2.1,2-2.5c0.6-0.3,0.9-0.1,1.1,0.8l0.9,2.8c0.7,2.2,2.6,4,4.6,4.6c2.4,0.7,4.1-0.7,3.3-3.3c-0.1-0.3-1.1-3.6-1.4-4.4
	c-0.1-0.2-0.1-0.2-0.1-0.4c-0.2-0.7-0.4-1.4-0.6-2.2c-1.8-6.5-2.2-9.7-1.2-12.4c3.8-6.1,7.3-8.8,11.4-9.4c0,0,0,0,0,0
	C150.1,35.4,155.1,38.6,158.4,41.5z"/>
</svg>
